# xmcd
# 
# Track frame offsets:
#     150
#     20216
#     48202
#     67197
#     84311
#     109375
#     126875
#     150328
# 
# Disc length: 2228
# 
# Revision: 0
# Processed by: cddbd v1.5.2PL0 Copyright (c) Steve Scherf et al.
# Submitted via: fre:ac v1.0.27
# 
DISCID=6608b208
DTITLE=GUIDO MANUSARDI - TRIO DE JAZZ (BLUE TRAIN)
DYEAR=0
DGENRE=Jazz
TTITLE0=N. Simon - POINCIANA
TTITLE1=Kosma and Mercer - AUTUMN LEAVES (Frunze de toamna)
TTITLE2=Guido Manusardi - BLUETRAIN (Tren albastru)
TTITLE3=Mercer and Allen - MYSHING HOURS (Orele mele fericite)
TTITLE4=E Vinson - ARRIVING SOON (Sosesc curind)
TTITLE5=Kahn and Styne - IFALL IN LOVE TOO EASILY (Ma indragostescprea usor)
TTITLE6=Shaughnessy - NIGERIAN WALK (Plimbare nigeriana)
TTITLE7=Mc Coy Tyner - MONK's BLUES (Bluesul lui Monk)
EXTD=Recorded in 1967
EXTT0=
EXTT1=
EXTT2=
EXTT3=
EXTT4=
EXTT5=
EXTT6=
EXTT7=
PLAYORDER=
